<?xml version="1.0" encoding="UTF-8"?>
<svg width="1025px" height="213px" viewBox="0 0 1025 213" version="1.1" xmlns="http://www.w3.org/2000/svg" xmlns:xlink="http://www.w3.org/1999/xlink">
    <title>Path</title>
    <g id="Symbols" stroke="none" stroke-width="1" fill="none" fill-rule="evenodd">
        <g id="footer" transform="translate(0.000000, -75.000000)" fill="#3B82F6" fill-rule="nonzero">
            <g id="wave-haikei" transform="translate(-14.000000, -313.000000)">
                <path d="M14,392.842334 L24.0222222,414.15848 C34.1583333,435.574701 54.2027778,478.206992 74.3611111,501.924957 C94.5194444,525.642922 114.563889,530.246409 134.722222,530.946939 C154.880556,531.64747 174.925,528.244893 195.083333,508.630036 C215.241667,488.915103 235.286111,452.887815 255.444444,436.675535 C275.602778,420.563331 295.647222,424.16606 315.805556,419.16227 C335.963889,414.15848 356.008333,400.548171 376.166667,397.645973 C396.325,394.84385 416.369444,402.849914 436.527778,420.563331 C456.686111,438.176672 476.730556,465.597441 496.661111,482.109949 C516.591667,498.622456 536.408333,504.226701 556.338889,492.918135 C576.269444,481.60957 596.313889,453.188042 616.472222,428.669471 C636.630556,404.1509 656.675,383.535285 676.833333,388.839302 C696.991667,394.14332 717.036111,425.567121 737.194444,438.576975 C757.352778,451.586829 777.397222,446.182736 797.555556,438.176672 C817.713889,430.170608 837.758333,419.562573 857.916667,430.370759 C878.075,441.178946 898.119444,473.603505 918.277778,488.614876 C938.436111,503.626246 958.480556,501.224427 978.638889,496.120561 C998.797222,490.916619 1018.84167,482.910555 1028.97778,478.907523 L1039,474.904491 L1039,601 L1028.97778,601 C1018.84167,601 998.797222,601 978.638889,601 C958.480556,601 938.436111,601 918.277778,601 C898.119444,601 878.075,601 857.916667,601 C837.758333,601 817.713889,601 797.555556,601 C777.397222,601 757.352778,601 737.194444,601 C717.036111,601 696.991667,601 676.833333,601 C656.675,601 636.630556,601 616.472222,601 C596.313889,601 576.269444,601 556.338889,601 C536.408333,601 516.591667,601 496.661111,601 C476.730556,601 456.686111,601 436.527778,601 C416.369444,601 396.325,601 376.166667,601 C356.008333,601 335.963889,601 315.805556,601 C295.647222,601 275.602778,601 255.444444,601 C235.286111,601 215.241667,601 195.083333,601 C174.925,601 154.880556,601 134.722222,601 C114.563889,601 94.5194444,601 74.3611111,601 C54.2027778,601 34.1583333,601 24.0222222,601 L14,601 L14,392.842334 Z" id="Path"/>
            </g>
        </g>
    </g>
</svg>